<!--?xml version="1.0" standalone="no"?-->
              <svg id="sw-js-blob-svg" viewBox="0 0 100 100" xmlns="http://www.w3.org/2000/svg" version="1.1">
                    <defs> 
                        <linearGradient id="sw-gradient" x1="0" x2="1" y1="1" y2="0">
                            <stop id="stop1" stop-color="rgba(248, 117, 55, 1)" offset="0%"></stop>
                            <stop id="stop2" stop-color="rgba(251, 168, 31, 1)" offset="100%"></stop>
                        </linearGradient>
                    </defs>
                <path fill="url(#sw-gradient)" d="M21.5,-25.7C27.5,-20.7,31.6,-13.5,32.7,-6C33.8,1.6,31.9,9.5,28.4,17.2C24.9,24.9,19.7,32.5,12.5,35.6C5.3,38.7,-3.9,37.5,-12.6,34.4C-21.3,31.4,-29.5,26.5,-34.7,19.2C-39.9,11.9,-42.3,2,-39.3,-5.6C-36.3,-13.1,-28.1,-18.4,-20.7,-23.2C-13.2,-28,-6.6,-32.3,0.6,-33C7.8,-33.7,15.6,-30.8,21.5,-25.7Z" width="100%" height="100%" transform="translate(50 50)" stroke-width="0" style="transition: all 0.3s ease 0s;" stroke="url(#sw-gradient)"></path>
              </svg>